<svg xmlns="http://www.w3.org/2000/svg" width="300" height="300" viewBox="0 0 300 300">
  <!-- 传统如意祥云纹无缝底纹 — 参考中国祥云传统纹样 -->
  <g fill="none" stroke="#b91c1c" stroke-width="1.2" stroke-linecap="round" stroke-linejoin="round" opacity="0.18">

    <!-- 如意云纹单元1: 左上 -->
    <path d="M75 75 C68 68 65 58 70 48 C75 38 86 34 96 38 C98 28 106 20 118 20 C130 20 140 28 142 40 C148 34 158 32 166 36 C174 40 178 48 176 56 C182 52 190 52 196 56 C202 60 204 68 200 74 C194 78 184 78 176 74 C172 82 162 86 152 84 C142 82 134 74 130 64 C124 72 112 76 100 72 C90 69 82 73 75 75 Z"/>
    <path d="M96 38 C93 41 91 45 90 49" stroke-width="0.9"/>
    <path d="M142 40 C139 43 137 47 136 51" stroke-width="0.9"/>
    <path d="M176 74 C173 76 170 78 167 79" stroke-width="0.9"/>

    <!-- 如意云纹单元2: 右上 -->
    <path d="M225 75 C218 68 215 58 220 48 C225 38 236 34 246 38 C248 28 256 20 268 20 C280 20 290 28 292 40 C298 34 308 32 316 36 C324 40 328 48 326 56 C332 52 340 52 346 56 C352 60 354 68 350 74 C344 78 334 78 326 74 C322 82 312 86 302 84 C292 82 284 74 280 64 C274 72 262 76 250 72 C240 69 232 73 225 75 Z"/>
    <path d="M246 38 C243 41 241 45 240 49" stroke-width="0.9"/>
    <path d="M292 40 C289 43 287 47 286 51" stroke-width="0.9"/>
    <path d="M326 74 C323 76 320 78 317 79" stroke-width="0.9"/>

    <!-- 如意云纹单元3: 左中 -->
    <path d="M25 175 C18 168 15 158 20 148 C25 138 36 134 46 138 C48 128 56 120 68 120 C80 120 90 128 92 140 C98 134 108 132 116 136 C124 140 128 148 126 156 C132 152 140 152 146 156 C152 160 154 168 150 174 C144 178 134 178 126 174 C122 182 112 186 102 184 C92 182 84 174 80 164 C74 172 62 176 50 172 C40 169 32 173 25 175 Z"/>
    <path d="M46 138 C43 141 41 145 40 149" stroke-width="0.9"/>
    <path d="M92 140 C89 143 87 147 86 151" stroke-width="0.9"/>
    <path d="M126 174 C123 176 120 178 117 179" stroke-width="0.9"/>

    <!-- 如意云纹单元4: 中中 -->
    <path d="M175 175 C168 168 165 158 170 148 C175 138 186 134 196 138 C198 128 206 120 218 120 C230 120 240 128 242 140 C248 134 258 132 266 136 C274 140 278 148 276 156 C282 152 290 152 296 156 C302 160 304 168 300 174 C294 178 284 178 276 174 C272 182 262 186 252 184 C242 182 234 174 230 164 C224 172 212 176 200 172 C190 169 182 173 175 175 Z"/>
    <path d="M196 138 C193 141 191 145 190 149" stroke-width="0.9"/>
    <path d="M242 140 C239 143 237 147 236 151" stroke-width="0.9"/>
    <path d="M276 174 C273 176 270 178 267 179" stroke-width="0.9"/>

    <!-- 如意云纹单元5: 右下 -->
    <path d="M225 275 C218 268 215 258 220 248 C225 238 236 234 246 238 C248 228 256 220 268 220 C280 220 290 228 292 240 C298 234 308 232 316 236 C324 240 328 248 326 256 C332 252 340 252 346 256 C352 260 354 268 350 274 C344 278 334 278 326 274 C322 282 312 286 302 284 C292 282 284 274 280 264 C274 272 262 276 250 272 C240 269 232 273 225 275 Z"/>
    <path d="M246 238 C243 241 241 245 240 249" stroke-width="0.9"/>
    <path d="M292 240 C289 243 287 247 286 251" stroke-width="0.9"/>
    <path d="M326 274 C323 276 320 278 317 279" stroke-width="0.9"/>

    <!-- 如意云纹单元6: 左下 -->
    <path d="M75 275 C68 268 65 258 70 248 C75 238 86 234 96 238 C98 228 106 220 118 220 C130 220 140 228 142 240 C148 234 158 232 166 236 C174 240 178 248 176 256 C182 252 190 252 196 256 C202 260 204 268 200 274 C194 278 184 278 176 274 C172 282 162 286 152 284 C142 282 134 274 130 264 C124 272 112 276 100 272 C90 269 82 273 75 275 Z"/>
    <path d="M96 238 C93 241 91 245 90 249" stroke-width="0.9"/>
    <path d="M142 240 C139 243 137 247 136 251" stroke-width="0.9"/>
    <path d="M176 274 C173 276 170 278 167 279" stroke-width="0.9"/>

  </g>

  <!-- 金色辅祥云层 -->
  <g fill="none" stroke="#c9972a" stroke-width="1" stroke-linecap="round" stroke-linejoin="round" opacity="0.14">

    <!-- 金色小祥云1 -->
    <path d="M150 50 C145 44 143 36 148 28 C153 20 163 17 171 21 C173 14 180 8 190 8 C200 8 208 15 210 25 C215 20 223 18 230 21 C237 24 240 31 237 37 C242 34 248 34 253 37 C258 40 260 46 256 51 C251 54 243 54 236 51 C233 57 225 61 216 59 C207 57 200 51 196 42 C191 49 181 52 171 49 C163 47 155 49 150 50 Z"/>
    <path d="M171 21 C169 23 167 26 166 29" stroke-width="0.8"/>
    <path d="M210 25 C208 27 206 30 205 33" stroke-width="0.8"/>

    <!-- 金色小祥云2 -->
    <path d="M0 250 C-5 244 -7 236 -2 228 C3 220 13 217 21 221 C23 214 30 208 40 208 C50 208 58 215 60 225 C65 220 73 218 80 221 C87 224 90 231 87 237 C92 234 98 234 103 237 C108 240 110 246 106 251 C101 254 93 254 86 251 C83 257 75 261 66 259 C57 257 50 251 46 242 C41 249 31 252 21 249 C13 247 5 249 0 250 Z"/>
    <path d="M21 221 C19 223 17 226 16 229" stroke-width="0.8"/>
    <path d="M60 225 C58 227 56 230 55 233" stroke-width="0.8"/>

    <!-- 金色小祥云3 -->
    <path d="M250 150 C245 144 243 136 248 128 C253 120 263 117 271 121 C273 114 280 108 290 108 C300 108 308 115 310 125 C315 120 323 118 330 121 C337 124 340 131 337 137 C342 134 348 134 353 137 C358 140 360 146 356 151 C351 154 343 154 336 151 C333 157 325 161 316 159 C307 157 300 151 296 142 C291 149 281 152 271 149 C263 147 255 149 250 150 Z"/>
    <path d="M271 121 C269 123 267 126 266 129" stroke-width="0.8"/>
    <path d="M310 125 C308 127 306 130 305 133" stroke-width="0.8"/>

    <!-- 金色小祥云4 -->
    <path d="M50 100 C45 94 43 86 48 78 C53 70 63 67 71 71 C73 64 80 58 90 58 C100 58 108 65 110 75 C115 70 123 68 130 71 C137 74 140 81 137 87 C142 84 148 84 153 87 C158 90 160 96 156 101 C151 104 143 104 136 101 C133 107 125 111 116 109 C107 107 100 101 96 92 C91 99 81 102 71 99 C63 97 55 99 50 100 Z"/>
    <path d="M71 71 C69 73 67 76 66 79" stroke-width="0.8"/>
    <path d="M110 75 C108 77 106 80 105 83" stroke-width="0.8"/>

  </g>
</svg>
