<svg xmlns="http://www.w3.org/2000/svg" width="400" height="400" viewBox="0 0 400 400">
  <!-- 传统如意祥云纹无缝底纹 -->
  <g fill="none" stroke="#b91c1c" stroke-width="1.4" stroke-linecap="round" stroke-linejoin="round" opacity="0.35">

    <!-- 祥云1: 左上 -->
    <path d="M50 80 C45 70 42 58 50 48 C58 38 72 36 82 44 C86 34 96 28 108 30 C120 32 130 42 130 54 C130 58 129 62 127 65 C134 60 142 58 150 58 C158 58 164 63 164 70 C164 77 158 82 150 82 C140 82 130 76 124 68 C122 78 114 86 102 88 C90 90 78 84 72 74 C66 80 58 82 50 80 Z"/>
    <!-- 螺旋卷曲细节 -->
    <path d="M82 44 C78 46 75 50 74 54" stroke-width="1"/>
    <path d="M127 65 C123 66 119 68 116 71" stroke-width="1"/>
    <!-- 如意头装饰 -->
    <path d="M50 48 C48 50 47 53 47 56" stroke-width="0.8"/>
    <path d="M108 30 C110 32 112 35 113 38" stroke-width="0.8"/>

    <!-- 祥云2: 右上 -->
    <path d="M250 80 C245 70 242 58 250 48 C258 38 272 36 282 44 C286 34 296 28 308 30 C320 32 330 42 330 54 C330 58 329 62 327 65 C334 60 342 58 350 58 C358 58 364 63 364 70 C364 77 358 82 350 82 C340 82 330 76 324 68 C322 78 314 86 302 88 C290 90 278 84 272 74 C266 80 258 82 250 80 Z"/>
    <path d="M282 44 C278 46 275 50 274 54" stroke-width="1"/>
    <path d="M327 65 C323 66 319 68 316 71" stroke-width="1"/>
    <path d="M250 48 C248 50 247 53 247 56" stroke-width="0.8"/>
    <path d="M308 30 C310 32 312 35 313 38" stroke-width="0.8"/>

    <!-- 祥云3: 中左 -->
    <path d="M150 200 C145 190 142 178 150 168 C158 158 172 156 182 164 C186 154 196 148 208 150 C220 152 230 162 230 174 C230 178 229 182 227 185 C234 180 242 178 250 178 C258 178 264 183 264 190 C264 197 258 202 250 202 C240 202 230 196 224 188 C222 198 214 206 202 208 C190 210 178 204 172 194 C166 200 158 202 150 200 Z"/>
    <path d="M182 164 C178 166 175 170 174 174" stroke-width="1"/>
    <path d="M227 185 C223 186 219 188 216 191" stroke-width="1"/>
    <path d="M150 168 C148 170 147 173 147 176" stroke-width="0.8"/>
    <path d="M208 150 C210 152 212 155 213 158" stroke-width="0.8"/>

    <!-- 祥云4: 中右 -->
    <path d="M310 280 C305 270 302 258 310 248 C318 238 332 236 342 244 C346 234 356 228 368 230 C380 232 390 242 390 254 C390 258 389 262 387 265 C394 260 402 258 410 258 C418 258 424 263 424 270 C424 277 418 282 410 282 C400 282 390 276 384 268 C382 278 374 286 362 288 C350 290 338 284 332 274 C326 280 318 282 310 280 Z"/>
    <path d="M342 244 C338 246 335 250 334 254" stroke-width="1"/>
    <path d="M387 265 C383 266 379 268 376 271" stroke-width="1"/>
    <path d="M310 248 C308 250 307 253 307 256" stroke-width="0.8"/>
    <path d="M368 230 C370 232 372 235 373 238" stroke-width="0.8"/>

    <!-- 祥云5: 左下 -->
    <path d="M30 300 C25 290 22 278 30 268 C38 258 52 256 62 264 C66 254 76 248 88 250 C100 252 110 262 110 274 C110 278 109 282 107 285 C114 280 122 278 130 278 C138 278 144 283 144 290 C144 297 138 302 130 302 C120 302 110 296 104 288 C102 298 94 306 82 308 C70 310 58 304 52 294 C46 300 38 302 30 300 Z"/>
    <path d="M62 264 C58 266 55 270 54 274" stroke-width="1"/>
    <path d="M107 285 C103 286 99 288 96 291" stroke-width="1"/>
    <path d="M30 268 C28 270 27 273 27 276" stroke-width="0.8"/>
    <path d="M88 250 C90 252 92 255 93 258" stroke-width="0.8"/>

    <!-- 祥云6: 中下偏右 -->
    <path d="M200 340 C195 330 192 318 200 308 C208 298 222 296 232 304 C236 294 246 288 258 290 C270 292 280 302 280 314 C280 318 279 322 277 325 C284 320 292 318 300 318 C308 318 314 323 314 330 C314 337 308 342 300 342 C290 342 280 336 274 328 C272 338 264 346 252 348 C240 350 228 344 222 334 C216 340 208 342 200 340 Z"/>
    <path d="M232 304 C228 306 225 310 224 314" stroke-width="1"/>
    <path d="M277 325 C273 326 269 328 266 331" stroke-width="1"/>
    <path d="M200 308 C198 310 197 313 197 316" stroke-width="0.8"/>
    <path d="M258 290 C260 292 262 295 263 298" stroke-width="0.8"/>

  </g>

  <!-- 金色祥云层 -->
  <g fill="none" stroke="#c9972a" stroke-width="1.2" stroke-linecap="round" stroke-linejoin="round" opacity="0.28">

    <!-- 金色祥云1: 上中 -->
    <path d="M100 140 C95 132 93 122 100 114 C107 106 119 104 128 111 C131 103 140 98 150 100 C160 102 168 110 168 120 C168 124 167 127 165 130 C171 126 178 124 185 124 C192 124 197 128 197 134 C197 140 192 144 185 144 C176 144 167 139 162 132 C160 141 153 148 143 149 C133 151 122 146 117 138 C112 143 105 144 100 140 Z"/>
    <path d="M128 111 C125 113 122 116 121 119" stroke-width="0.9"/>
    <path d="M165 130 C162 131 159 133 156 135" stroke-width="0.9"/>

    <!-- 金色祥云2: 右中 -->
    <path d="M280 180 C275 172 273 162 280 154 C287 146 299 144 308 151 C311 143 320 138 330 140 C340 142 348 150 348 160 C348 164 347 167 345 170 C351 166 358 164 365 164 C372 164 377 168 377 174 C377 180 372 184 365 184 C356 184 347 179 342 172 C340 181 333 188 323 189 C313 191 302 186 297 178 C292 183 285 184 280 180 Z"/>
    <path d="M308 151 C305 153 302 156 301 159" stroke-width="0.9"/>
    <path d="M345 170 C342 171 339 173 336 175" stroke-width="0.9"/>

    <!-- 金色祥云3: 下中偏左 -->
    <path d="M60 240 C55 232 53 222 60 214 C67 206 79 204 88 211 C91 203 100 198 110 200 C120 202 128 210 128 220 C128 224 127 227 125 230 C131 226 138 224 145 224 C152 224 157 228 157 234 C157 240 152 244 145 244 C136 244 127 239 122 232 C120 241 113 248 103 249 C93 251 82 246 77 238 C72 243 65 244 60 240 Z"/>
    <path d="M88 211 C85 213 82 216 81 219" stroke-width="0.9"/>
    <path d="M125 230 C122 231 119 233 116 235" stroke-width="0.9"/>

    <!-- 金色祥云4: 右下角 -->
    <path d="M340 360 C335 352 333 342 340 334 C347 326 359 324 368 331 C371 323 380 318 390 320 C400 322 408 330 408 340 C408 344 407 347 405 350 C411 346 418 344 425 344 C432 344 437 348 437 354 C437 360 432 364 425 364 C416 364 407 359 402 352 C400 361 393 368 383 369 C373 371 362 366 357 358 C352 363 345 364 340 360 Z"/>
    <path d="M368 331 C365 333 362 336 361 339" stroke-width="0.9"/>
    <path d="M405 350 C402 351 399 353 396 355" stroke-width="0.9"/>

  </g>
</svg>
